STARTFONT 2.1
FONT kana.12x24
SIZE 22 80 80
FONTBOUNDINGBOX 12 24 0 -3

STARTPROPERTIES 9
POINT_SIZE 220
WEIGHT 10
RESOLUTION_X 80
RESOLUTION_Y 80
X_HEIGHT -1
QUAD_WIDTH 12
DEFAULT_CHAR 32
FONT_DESCENT 3
FONT_ASCENT 21
ENDPROPERTIES

CHARS 256

STARTCHAR onx0
ENCODING 0
SWIDTH 500 0
DWIDTH 12 0
BBX 12 24 0 -3
BITMAP
0000
0000
4200
4200
6200
5200
4A00
4600
4200
4200
4200
0000
0420
0420
0420
0420
0420
0420
0420
0420
03C0
0000
0000
0000
ENDCHAR

STARTCHAR onx1
ENCODING 1
SWIDTH 500 0
DWIDTH 12 0
BBX 12 24 0 -3
BITMAP
0000
0000
3C00
4200
4000
4000
3C00
0200
0200
4200
3C00
0000
0420
0420
0420
0420
07E0
0420
0420
0420
0420
0000
0000
0000
ENDCHAR

STARTCHAR onx2
ENCODING 2
SWIDTH 500 0
DWIDTH 12 0
BBX 12 24 0 -3
BITMAP
0000
0000
3C00
4200
4000
4000
3C00
0200
0200
4200
3C00
0000
0420
0420
0240
0180
0180
0180
0240
0420
0420
0000
0000
0000
ENDCHAR

STARTCHAR onx3
ENCODING 3
SWIDTH 500 0
DWIDTH 12 0
BBX 12 24 0 -3
BITMAP
0000
0000
7E00
4000
4000
4000
7C00
4000
4000
4000
7E00
0000
0420
0420
0240
0180
0180
0180
0240
0420
0420
0000
0000
0000
ENDCHAR

STARTCHAR onx4
ENCODING 4
SWIDTH 500 0
DWIDTH 12 0
BBX 12 24 0 -3
BITMAP
0000
0000
7E00
4000
4000
4000
7C00
4000
4000
4000
7E00
0000
0FE0
0100
0100
0100
0100
0100
0100
0100
0100
0000
0000
0000
ENDCHAR

STARTCHAR onx5
ENCODING 5
SWIDTH 500 0
DWIDTH 12 0
BBX 12 24 0 -3
BITMAP
0000
0000
7E00
4000
4000
4000
7C00
4000
4000
4000
7E00
0000
0780
0840
0840
0840
0840
0A40
0940
08C0
07A0
0000
0000
0000
ENDCHAR

STARTCHAR onx6
ENCODING 6
SWIDTH 500 0
DWIDTH 12 0
BBX 12 24 0 -3
BITMAP
0000
0000
1800
1800
2400
2400
4200
7E00
4200
4200
4200
0000
0420
0440
0480
0500
0600
0500
0480
0440
0420
0000
0000
0000
ENDCHAR

STARTCHAR onx7
ENCODING 7
SWIDTH 500 0
DWIDTH 12 0
BBX 12 24 0 -3
BITMAP
0000
0000
0000
0600
0900
0900
1080
1080
1080
1080
1080
2040
2040
2040
4020
4020
7FE0
0600
0900
0900
0600
0000
0000
0000
ENDCHAR

STARTCHAR onx8
ENCODING 8
SWIDTH 500 0
DWIDTH 12 0
BBX 12 24 0 -3
BITMAP
0000
0000
7C00
2200
2200
2200
3C00
2200
2200
2200
7C00
0000
03C0
0420
0400
0400
03C0
0020
0020
0420
03C0
0000
0000
0000
ENDCHAR

STARTCHAR onx9
ENCODING 9
SWIDTH 500 0
DWIDTH 12 0
BBX 12 24 0 -3
BITMAP
0000
0000
4200
4200
4200
4200
7E00
4200
4200
4200
4200
0000
0FE0
0100
0100
0100
0100
0100
0100
0100
0100
0000
0000
0000
ENDCHAR

STARTCHAR onx10
ENCODING 10
SWIDTH 500 0
DWIDTH 12 0
BBX 12 24 0 -3
BITMAP
0000
0000
4000
4000
4000
4000
4000
4000
4000
4000
7E00
0000
07E0
0400
0400
0400
07C0
0400
0400
0400
0400
0000
0000
0000
ENDCHAR

STARTCHAR onx11
ENCODING 11
SWIDTH 500 0
DWIDTH 12 0
BBX 12 24 0 -3
BITMAP
0000
0000
4200
4200
4200
4200
2400
2400
2400
1800
1800
0000
0FE0
0100
0100
0100
0100
0100
0100
0100
0100
0000
0000
0000
ENDCHAR

STARTCHAR onx12
ENCODING 12
SWIDTH 500 0
DWIDTH 12 0
BBX 12 24 0 -3
BITMAP
0000
0000
7E00
4000
4000
4000
7C00
4000
4000
4000
4000
0000
0FC0
0800
0800
0800
0F80
0800
0800
0800
0800
0000
0000
0000
ENDCHAR

STARTCHAR onx13
ENCODING 13
SWIDTH 500 0
DWIDTH 12 0
BBX 12 24 0 -3
BITMAP
0000
0000
3C00
4200
4200
4000
4000
4000
4000
4200
3C00
0000
07C0
0420
0420
0420
07C0
0500
0480
0440
0420
0000
0000
0000
ENDCHAR

STARTCHAR onx14
ENCODING 14
SWIDTH 500 0
DWIDTH 12 0
BBX 12 24 0 -3
BITMAP
0000
0000
3C00
4200
4000
4000
3C00
0200
0200
4200
3C00
0000
03C0
0420
0420
0420
0420
0420
0420
0420
03C0
0000
0000
0000
ENDCHAR

STARTCHAR onx15
ENCODING 15
SWIDTH 500 0
DWIDTH 12 0
BBX 12 24 0 -3
BITMAP
0000
0000
3C00
4200
4000
4000
3C00
0200
0200
4200
3C00
0000
0380
0100
0100
0100
0100
0100
0100
0100
0380
0000
0000
0000
ENDCHAR

STARTCHAR onx16
ENCODING 16
SWIDTH 500 0
DWIDTH 12 0
BBX 12 24 0 -3
BITMAP
0000
0000
7800
4400
4200
4200
4200
4200
4200
4400
7800
0000
0400
0400
0400
0400
0400
0400
0400
0400
07E0
0000
0000
0000
ENDCHAR

STARTCHAR onx17
ENCODING 17
SWIDTH 500 0
DWIDTH 12 0
BBX 12 24 0 -3
BITMAP
0000
0000
7800
4400
4200
4200
4200
4200
4200
4400
7800
0000
0080
0180
0280
0080
0080
0080
0080
0080
03E0
0000
0000
0000
ENDCHAR

STARTCHAR onx18
ENCODING 18
SWIDTH 500 0
DWIDTH 12 0
BBX 12 24 0 -3
BITMAP
0000
0000
7800
4400
4200
4200
4200
4200
4200
4400
7800
0000
03C0
0420
0420
0040
0080
0100
0200
0400
07E0
0000
0000
0000
ENDCHAR

STARTCHAR onx19
ENCODING 19
SWIDTH 500 0
DWIDTH 12 0
BBX 12 24 0 -3
BITMAP
0000
0000
7800
4400
4200
4200
4200
4200
4200
4400
7800
0000
03C0
0420
0020
0020
01C0
0020
0020
0420
03C0
0000
0000
0000
ENDCHAR

STARTCHAR onx20
ENCODING 20
SWIDTH 500 0
DWIDTH 12 0
BBX 12 24 0 -3
BITMAP
0000
0000
7800
4400
4200
4200
4200
4200
4200
4400
7800
0000
0080
0180
0280
0480
0880
0880
0FC0
0080
0080
0000
0000
0000
ENDCHAR

STARTCHAR onx21
ENCODING 21
SWIDTH 500 0
DWIDTH 12 0
BBX 12 24 0 -3
BITMAP
0000
0000
4200
4200
6200
5200
4A00
4600
4200
4200
4200
0000
0420
0440
0480
0500
0600
0500
0480
0440
0420
0000
0000
0000
ENDCHAR

STARTCHAR onx22
ENCODING 22
SWIDTH 500 0
DWIDTH 12 0
BBX 12 24 0 -3
BITMAP
0000
0000
3C00
4200
4000
4000
3C00
0200
0200
4200
3C00
0000
0820
0440
0280
0100
0100
0100
0100
0100
0100
0000
0000
0000
ENDCHAR

STARTCHAR onx23
ENCODING 23
SWIDTH 500 0
DWIDTH 12 0
BBX 12 24 0 -3
BITMAP
0000
0000
7E00
4000
4000
4000
7C00
4000
4000
4000
7E00
0000
07C0
0220
0220
0220
03C0
0220
0220
0220
07C0
0000
0000
0000
ENDCHAR

STARTCHAR onx24
ENCODING 24
SWIDTH 500 0
DWIDTH 12 0
BBX 12 24 0 -3
BITMAP
0000
0000
3C00
4200
4200
4000
4000
4000
4000
4200
3C00
0000
0420
0420
0620
0520
04A0
0460
0420
0420
0420
0000
0000
0000
ENDCHAR

STARTCHAR onx25
ENCODING 25
SWIDTH 500 0
DWIDTH 12 0
BBX 12 24 0 -3
BITMAP
0000
0000
7E00
4000
4000
4000
7C00
4000
4000
4000
7E00
0000
0440
0440
06C0
06C0
0540
0540
0440
0440
0440
0000
0000
0000
ENDCHAR

STARTCHAR onx26
ENCODING 26
SWIDTH 500 0
DWIDTH 12 0
BBX 12 24 0 -3
BITMAP
0000
0000
3C00
4200
4000
4000
3C00
0200
0200
4200
3C00
0000
07C0
0220
0220
0220
03C0
0220
0220
0220
07C0
0000
0000
0000
ENDCHAR

STARTCHAR onx27
ENCODING 27
SWIDTH 500 0
DWIDTH 12 0
BBX 12 24 0 -3
BITMAP
0000
0000
7E00
4000
4000
4000
7C00
4000
4000
4000
7E00
0000
03C0
0420
0420
0400
0400
0400
0400
0420
03C0
0000
0000
0000
ENDCHAR

STARTCHAR onx28
ENCODING 28
SWIDTH 500 0
DWIDTH 12 0
BBX 12 24 0 -3
BITMAP
0000
0000
7E00
4000
4000
4000
7C00
4000
4000
4000
4000
0000
03C0
0420
0400
0400
03C0
0020
0020
0420
03C0
0000
0000
0000
ENDCHAR

STARTCHAR onx29
ENCODING 29
SWIDTH 500 0
DWIDTH 12 0
BBX 12 24 0 -3
BITMAP
0000
0000
3C00
4200
4000
4000
4000
4E00
4200
4200
3C00
0000
03C0
0420
0400
0400
03C0
0020
0020
0420
03C0
0000
0000
0000
ENDCHAR

STARTCHAR onx30
ENCODING 30
SWIDTH 500 0
DWIDTH 12 0
BBX 12 24 0 -3
BITMAP
0000
0000
7C00
4200
4200
4200
7C00
5000
4800
4400
4200
0000
03C0
0420
0400
0400
03C0
0020
0020
0420
03C0
0000
0000
0000
ENDCHAR

STARTCHAR onx31
ENCODING 31
SWIDTH 500 0
DWIDTH 12 0
BBX 12 24 0 -3
BITMAP
0000
0000
4200
4200
4200
4200
4200
4200
4200
4200
3C00
0000
03C0
0420
0400
0400
03C0
0020
0020
0420
03C0
0000
0000
0000
ENDCHAR

STARTCHAR onx32
ENCODING 32
SWIDTH 500 0
DWIDTH 12 0
BBX 12 24 0 -3
BITMAP
0000
0000
0000
0000
0000
0000
0000
0000
0000
0000
0000
0000
0000
0000
0000
0000
0000
0000
0000
0000
0000
0000
0000
0000
ENDCHAR

STARTCHAR onx33
ENCODING 33
SWIDTH 500 0
DWIDTH 12 0
BBX 12 24 0 -3
BITMAP
0000
0000
0000
0400
0E00
0E00
0E00
0E00
0E00
0E00
0E00
0E00
0E00
0400
0400
0400
0000
0400
0E00
0E00
0400
0000
0000
0000
ENDCHAR

STARTCHAR onx34
ENCODING 34
SWIDTH 500 0
DWIDTH 12 0
BBX 12 24 0 -3
BITMAP
0000
3180
7BC0
3180
3180
2100
4200
0000
0000
0000
0000
0000
0000
0000
0000
0000
0000
0000
0000
0000
0000
0000
0000
0000
ENDCHAR

STARTCHAR onx35
ENCODING 35
SWIDTH 500 0
DWIDTH 12 0
BBX 12 24 0 -3
BITMAP
0000
0000
1980
1980
1980
1980
1980
19E0
1F80
7980
1980
1980
1980
19E0
1F80
7980
1980
1980
1980
1980
1980
0000
0000
0000
ENDCHAR

STARTCHAR onx36
ENCODING 36
SWIDTH 500 0
DWIDTH 12 0
BBX 12 24 0 -3
BITMAP
0000
0000
0600
0600
0F00
36C0
6660
6660
6600
7600
3E00
0F00
07C0
06E0
0660
0660
6660
6660
36C0
0F00
0600
0600
0000
0000
ENDCHAR

STARTCHAR onx37
ENCODING 37
SWIDTH 500 0
DWIDTH 12 0
BBX 12 24 0 -3
BITMAP
0000
0000
3820
6C60
6C40
6CC0
6C80
6D80
6D00
3B00
0200
0600
0400
0DC0
0B60
1B60
1360
3360
2360
6360
41C0
0000
0000
0000
ENDCHAR

STARTCHAR onx38
ENCODING 38
SWIDTH 500 0
DWIDTH 12 0
BBX 12 24 0 -3
BITMAP
0000
0000
0000
0C00
1200
3300
3300
3300
1200
0C00
1800
1DE0
3C40
2640
66C0
6680
6280
6380
63A0
31A0
33E0
1CC0
0000
0000
ENDCHAR

STARTCHAR onx39
ENCODING 39
SWIDTH 500 0
DWIDTH 12 0
BBX 12 24 0 -3
BITMAP
0000
1800
3C00
1800
1800
1000
2000
0000
0000
0000
0000
0000
0000
0000
0000
0000
0000
0000
0000
0000
0000
0000
0000
0000
ENDCHAR

STARTCHAR onx40
ENCODING 40
SWIDTH 500 0
DWIDTH 12 0
BBX 12 24 0 -3
BITMAP
0000
0000
0080
0100
0300
0200
0600
0600
0400
0C00
0C00
0C00
0C00
0C00
0C00
0400
0600
0600
0200
0300
0100
0080
0000
0000
ENDCHAR

STARTCHAR onx41
ENCODING 41
SWIDTH 500 0
DWIDTH 12 0
BBX 12 24 0 -3
BITMAP
0000
0000
1000
0800
0C00
0400
0600
0600
0200
0300
0300
0300
0300
0300
0300
0200
0600
0600
0400
0C00
0800
1000
0000
0000
ENDCHAR

STARTCHAR onx42
ENCODING 42
SWIDTH 500 0
DWIDTH 12 0
BBX 12 24 0 -3
BITMAP
0000
0000
0000
0000
0000
0000
0000
0600
0600
6660
76E0
1F80
0600
1F80
76E0
6660
0600
0600
0000
0000
0000
0000
0000
0000
ENDCHAR

STARTCHAR onx43
ENCODING 43
SWIDTH 500 0
DWIDTH 12 0
BBX 12 24 0 -3
BITMAP
0000
0000
0000
0000
0000
0000
0000
0600
0600
0600
0600
0600
7FE0
0600
0600
0600
0600
0600
0000
0000
0000
0000
0000
0000
ENDCHAR

STARTCHAR onx44
ENCODING 44
SWIDTH 500 0
DWIDTH 12 0
BBX 12 24 0 -3
BITMAP
0000
0000
0000
0000
0000
0000
0000
0000
0000
0000
0000
0000
0000
0000
0000
0000
0000
0000
0000
1800
3C00
1800
1800
3000
ENDCHAR

STARTCHAR onx45
ENCODING 45
SWIDTH 500 0
DWIDTH 12 0
BBX 12 24 0 -3
BITMAP
0000
0000
0000
0000
0000
0000
0000
0000
0000
0000
0000
0000
3FC0
0000
0000
0000
0000
0000
0000
0000
0000
0000
0000
0000
ENDCHAR

STARTCHAR onx46
ENCODING 46
SWIDTH 500 0
DWIDTH 12 0
BBX 12 24 0 -3
BITMAP
0000
0000
0000
0000
0000
0000
0000
0000
0000
0000
0000
0000
0000
0000
0000
0000
0000
0000
0000
1800
3C00
1800
0000
0000
ENDCHAR

STARTCHAR onx47
ENCODING 47
SWIDTH 500 0
DWIDTH 12 0
BBX 12 24 0 -3
BITMAP
0000
0000
0020
0060
0040
00C0
0080
0180
0100
0300
0200
0600
0400
0C00
0800
1800
1000
3000
2000
6000
4000
0000
0000
0000
ENDCHAR

STARTCHAR onx48
ENCODING 48
SWIDTH 500 0
DWIDTH 12 0
BBX 12 24 0 -3
BITMAP
0000
0000
0000
0E00
1B00
3180
3180
3180
60C0
60C0
60C0
60C0
60C0
60C0
60C0
60C0
3180
3180
3180
1B00
0E00
0000
0000
0000
ENDCHAR

STARTCHAR onx49
ENCODING 49
SWIDTH 500 0
DWIDTH 12 0
BBX 12 24 0 -3
BITMAP
0000
0000
0000
0600
0600
0E00
3E00
0600
0600
0600
0600
0600
0600
0600
0600
0600
0600
0600
0600
0600
3FC0
0000
0000
0000
ENDCHAR

STARTCHAR onx50
ENCODING 50
SWIDTH 500 0
DWIDTH 12 0
BBX 12 24 0 -3
BITMAP
0000
0000
0000
0E00
3180
3180
60C0
60C0
70C0
3180
0180
0300
0600
0C00
1800
1000
3000
2040
6040
7FC0
7FC0
0000
0000
0000
ENDCHAR

STARTCHAR onx51
ENCODING 51
SWIDTH 500 0
DWIDTH 12 0
BBX 12 24 0 -3
BITMAP
0000
0000
0000
0E00
3180
6180
60C0
60C0
00C0
0180
0F00
0E00
0180
00C0
00C0
00C0
60C0
60C0
6180
3180
0E00
0000
0000
0000
ENDCHAR

STARTCHAR onx52
ENCODING 52
SWIDTH 500 0
DWIDTH 12 0
BBX 12 24 0 -3
BITMAP
0000
0000
0000
0180
0180
0380
0380
0780
0580
0D80
0980
1980
1180
3180
2180
6180
7FE0
0180
0180
0180
07E0
0000
0000
0000
ENDCHAR

STARTCHAR onx53
ENCODING 53
SWIDTH 500 0
DWIDTH 12 0
BBX 12 24 0 -3
BITMAP
0000
0000
0000
7F80
7F00
4000
4000
4000
4000
4000
5E00
7380
4180
00C0
00C0
00C0
60C0
60C0
6180
3380
0E00
0000
0000
0000
ENDCHAR

STARTCHAR onx54
ENCODING 54
SWIDTH 500 0
DWIDTH 12 0
BBX 12 24 0 -3
BITMAP
0000
0000
0000
0F00
3180
30C0
60C0
60C0
6000
6000
6000
6E00
7180
60C0
60C0
60C0
60C0
60C0
6180
3180
0E00
0000
0000
0000
ENDCHAR

STARTCHAR onx55
ENCODING 55
SWIDTH 500 0
DWIDTH 12 0
BBX 12 24 0 -3
BITMAP
0000
0000
0000
7FC0
7FC0
00C0
0180
0180
0100
0300
0300
0200
0600
0600
0600
0400
0C00
0C00
0C00
0C00
0C00
0000
0000
0000
ENDCHAR

STARTCHAR onx56
ENCODING 56
SWIDTH 500 0
DWIDTH 12 0
BBX 12 24 0 -3
BITMAP
0000
0000
0000
0E00
3180
3180
60C0
60C0
60C0
3180
3180
0E00
3180
3180
60C0
60C0
60C0
60C0
3180
3180
0E00
0000
0000
0000
ENDCHAR

STARTCHAR onx57
ENCODING 57
SWIDTH 500 0
DWIDTH 12 0
BBX 12 24 0 -3
BITMAP
0000
0000
0000
0E00
3180
3180
60C0
60C0
60C0
60C0
60C0
31C0
0EC0
00C0
00C0
00C0
60C0
60C0
6180
3180
0E00
0000
0000
0000
ENDCHAR

STARTCHAR onx58
ENCODING 58
SWIDTH 500 0
DWIDTH 12 0
BBX 12 24 0 -3
BITMAP
0000
0000
0000
0000
0000
0000
0000
0000
0600
0F00
0600
0000
0000
0000
0000
0000
0000
0000
0600
0F00
0600
0000
0000
0000
ENDCHAR

STARTCHAR onx59
ENCODING 59
SWIDTH 500 0
DWIDTH 12 0
BBX 12 24 0 -3
BITMAP
0000
0000
0000
0000
0000
0000
0000
0000
0600
0F00
0600
0000
0000
0000
0000
0000
0000
0000
0600
0F00
0600
0600
0C00
0000
ENDCHAR

STARTCHAR onx60
ENCODING 60
SWIDTH 500 0
DWIDTH 12 0
BBX 12 24 0 -3
BITMAP
0000
0000
0000
0000
0000
00C0
0180
0300
0600
0C00
1800
3000
6000
3000
1800
0C00
0600
0300
0180
00C0
0000
0000
0000
0000
ENDCHAR

STARTCHAR onx61
ENCODING 61
SWIDTH 500 0
DWIDTH 12 0
BBX 12 24 0 -3
BITMAP
0000
0000
0000
0000
0000
0000
0000
0000
0000
3FC0
0000
0000
0000
0000
0000
3FC0
0000
0000
0000
0000
0000
0000
0000
0000
ENDCHAR

STARTCHAR onx62
ENCODING 62
SWIDTH 500 0
DWIDTH 12 0
BBX 12 24 0 -3
BITMAP
0000
0000
0000
0000
0000
3000
1800
0C00
0600
0300
0180
00C0
0060
00C0
0180
0300
0600
0C00
1800
3000
0000
0000
0000
0000
ENDCHAR

STARTCHAR onx63
ENCODING 63
SWIDTH 500 0
DWIDTH 12 0
BBX 12 24 0 -3
BITMAP
0000
0000
0000
0F00
30C0
6060
6060
7060
30E0
00C0
0180
0300
0200
0400
0400
0400
0000
0400
0E00
0E00
0400
0000
0000
0000
ENDCHAR

STARTCHAR onx64
ENCODING 64
SWIDTH 500 0
DWIDTH 12 0
BBX 12 24 0 -3
BITMAP
0000
0000
0000
0F00
1080
30C0
2040
6060
46A0
49A0
59A0
59A0
59A0
59A0
59A0
59A0
4BC0
6580
2000
3020
10C0
0F00
0000
0000
ENDCHAR

STARTCHAR onx65
ENCODING 65
SWIDTH 500 0
DWIDTH 12 0
BBX 12 24 0 -3
BITMAP
0000
0000
0000
0600
0600
0E00
0B00
0B00
0B00
1B00
1180
1180
1180
1180
3F80
20C0
20C0
20C0
20C0
20C0
71E0
0000
0000
0000
ENDCHAR

STARTCHAR onx66
ENCODING 66
SWIDTH 500 0
DWIDTH 12 0
BBX 12 24 0 -3
BITMAP
0000
0000
0000
7E00
3180
30C0
30C0
30C0
30C0
3080
3100
3E00
3180
30C0
3060
3060
3060
3060
30C0
3180
7E00
0000
0000
0000
ENDCHAR

STARTCHAR onx67
ENCODING 67
SWIDTH 500 0
DWIDTH 12 0
BBX 12 24 0 -3
BITMAP
0000
0000
0000
0700
18C0
3060
3060
6000
6000
6000
6000
6000
6000
6000
6000
6020
6020
3060
3040
18C0
0700
0000
0000
0000
ENDCHAR

STARTCHAR onx68
ENCODING 68
SWIDTH 500 0
DWIDTH 12 0
BBX 12 24 0 -3
BITMAP
0000
0000
0000
7E00
3180
30C0
30C0
3060
3060
3060
3060
3060
3060
3060
3060
3060
3060
30C0
30C0
3180
7E00
0000
0000
0000
ENDCHAR

STARTCHAR onx69
ENCODING 69
SWIDTH 500 0
DWIDTH 12 0
BBX 12 24 0 -3
BITMAP
0000
0000
0000
7FE0
3060
3020
3020
3000
3100
3100
3300
3F00
3300
3100
3100
3000
3000
3020
3020
3060
7FE0
0000
0000
0000
ENDCHAR

STARTCHAR onx70
ENCODING 70
SWIDTH 500 0
DWIDTH 12 0
BBX 12 24 0 -3
BITMAP
0000
0000
0000
7FE0
3060
3020
3020
3000
3100
3100
3300
3F00
3300
3100
3100
3000
3000
3000
3000
3000
7800
0000
0000
0000
ENDCHAR

STARTCHAR onx71
ENCODING 71
SWIDTH 500 0
DWIDTH 12 0
BBX 12 24 0 -3
BITMAP
0000
0000
0000
0E00
1980
30C0
30C0
6000
6000
6000
6000
6000
6000
6000
61E0
60C0
60C0
30C0
30C0
19C0
0E40
0000
0000
0000
ENDCHAR

STARTCHAR onx72
ENCODING 72
SWIDTH 500 0
DWIDTH 12 0
BBX 12 24 0 -3
BITMAP
0000
0000
0000
79E0
30C0
30C0
30C0
30C0
30C0
30C0
30C0
3FC0
30C0
30C0
30C0
30C0
30C0
30C0
30C0
30C0
79E0
0000
0000
0000
ENDCHAR

STARTCHAR onx73
ENCODING 73
SWIDTH 500 0
DWIDTH 12 0
BBX 12 24 0 -3
BITMAP
0000
0000
0000
1F80
0600
0600
0600
0600
0600
0600
0600
0600
0600
0600
0600
0600
0600
0600
0600
0600
1F80
0000
0000
0000
ENDCHAR

STARTCHAR onx74
ENCODING 74
SWIDTH 500 0
DWIDTH 12 0
BBX 12 24 0 -3
BITMAP
0000
0000
0000
0FC0
0300
0300
0300
0300
0300
0300
0300
0300
0300
0300
0300
0300
0300
3300
3300
3300
1E00
0000
0000
0000
ENDCHAR

STARTCHAR onx75
ENCODING 75
SWIDTH 500 0
DWIDTH 12 0
BBX 12 24 0 -3
BITMAP
0000
0000
0000
79E0
30C0
3080
3180
3100
3300
3200
3600
3C00
3C00
3600
3600
3300
3300
3180
3180
30C0
79E0
0000
0000
0000
ENDCHAR

STARTCHAR onx76
ENCODING 76
SWIDTH 500 0
DWIDTH 12 0
BBX 12 24 0 -3
BITMAP
0000
0000
0000
7800
3000
3000
3000
3000
3000
3000
3000
3000
3000
3000
3000
3000
3000
3020
3020
3060
7FE0
0000
0000
0000
ENDCHAR

STARTCHAR onx77
ENCODING 77
SWIDTH 500 0
DWIDTH 12 0
BBX 12 24 0 -3
BITMAP
0000
0000
0000
71E0
31C0
31C0
31C0
2AC0
2AC0
2AC0
2AC0
24C0
24C0
24C0
24C0
20C0
20C0
20C0
20C0
20C0
71E0
0000
0000
0000
ENDCHAR

STARTCHAR onx78
ENCODING 78
SWIDTH 500 0
DWIDTH 12 0
BBX 12 24 0 -3
BITMAP
0000
0000
0000
70E0
3040
3840
3840
3840
2C40
2C40
2C40
2640
2640
2340
2340
2340
21C0
21C0
21C0
20C0
70C0
0000
0000
0000
ENDCHAR

STARTCHAR onx79
ENCODING 79
SWIDTH 500 0
DWIDTH 12 0
BBX 12 24 0 -3
BITMAP
0000
0000
0000
0F00
30C0
30C0
6060
6060
6060
6060
6060
6060
6060
6060
6060
6060
6060
6060
30C0
30C0
0F00
0000
0000
0000
ENDCHAR

STARTCHAR onx80
ENCODING 80
SWIDTH 500 0
DWIDTH 12 0
BBX 12 24 0 -3
BITMAP
0000
0000
0000
7F00
30C0
3060
3060
3060
3060
3060
30C0
3F00
3000
3000
3000
3000
3000
3000
3000
3000
7800
0000
0000
0000
ENDCHAR

STARTCHAR onx81
ENCODING 81
SWIDTH 500 0
DWIDTH 12 0
BBX 12 24 0 -3
BITMAP
0000
0000
0000
0F00
30C0
30C0
6060
6060
6060
6060
6060
6060
6060
6060
6060
6E60
7160
7160
31C0
31C0
0F80
01E0
00E0
0000
ENDCHAR

STARTCHAR onx82
ENCODING 82
SWIDTH 500 0
DWIDTH 12 0
BBX 12 24 0 -3
BITMAP
0000
0000
0000
7E00
3180
30C0
30C0
30C0
30C0
30C0
3180
3E00
3600
3600
3300
3300
3180
3180
30C0
30C0
7860
0000
0000
0000
ENDCHAR

STARTCHAR onx83
ENCODING 83
SWIDTH 500 0
DWIDTH 12 0
BBX 12 24 0 -3
BITMAP
0000
0000
0000
0E40
31C0
60C0
6040
6000
6000
3000
3C00
1F00
0780
0180
00C0
00C0
00C0
40C0
60C0
7180
4E00
0000
0000
0000
ENDCHAR

STARTCHAR onx84
ENCODING 84
SWIDTH 500 0
DWIDTH 12 0
BBX 12 24 0 -3
BITMAP
0000
0000
0000
7FE0
6660
4620
4620
4620
0600
0600
0600
0600
0600
0600
0600
0600
0600
0600
0600
0600
0F00
0000
0000
0000
ENDCHAR

STARTCHAR onx85
ENCODING 85
SWIDTH 500 0
DWIDTH 12 0
BBX 12 24 0 -3
BITMAP
0000
0000
0000
78E0
3040
3040
3040
3040
3040
3040
3040
3040
3040
3040
3040
3040
3040
3040
3040
1880
0F00
0000
0000
0000
ENDCHAR

STARTCHAR onx86
ENCODING 86
SWIDTH 500 0
DWIDTH 12 0
BBX 12 24 0 -3
BITMAP
0000
0000
0000
78E0
3040
3040
3040
30C0
1880
1880
1880
1880
1980
0D00
0D00
0D00
0D00
0F00
0600
0600
0600
0000
0000
0000
ENDCHAR

STARTCHAR onx87
ENCODING 87
SWIDTH 500 0
DWIDTH 12 0
BBX 12 24 0 -3
BITMAP
0000
0000
0000
7020
6020
6020
6020
6020
6220
6220
6260
3240
3240
3740
3540
3540
3540
3DC0
1980
1980
1980
0000
0000
0000
ENDCHAR

STARTCHAR onx88
ENCODING 88
SWIDTH 500 0
DWIDTH 12 0
BBX 12 24 0 -3
BITMAP
0000
0000
0000
78E0
3040
30C0
1880
1980
0D00
0D00
0700
0600
0600
0E00
0B00
0B00
1980
1180
30C0
20C0
71E0
0000
0000
0000
ENDCHAR

STARTCHAR onx89
ENCODING 89
SWIDTH 500 0
DWIDTH 12 0
BBX 12 24 0 -3
BITMAP
0000
0000
0000
78E0
3040
3040
30C0
1880
1880
1980
0D00
0D00
0F00
0600
0600
0600
0600
0600
0600
0600
0F00
0000
0000
0000
ENDCHAR

STARTCHAR onx90
ENCODING 90
SWIDTH 500 0
DWIDTH 12 0
BBX 12 24 0 -3
BITMAP
0000
0000
0000
7FE0
6060
40C0
40C0
0180
0180
0300
0300
0600
0600
0C00
0C00
1800
1800
3020
3020
6060
7FE0
0000
0000
0000
ENDCHAR

STARTCHAR onx91
ENCODING 91
SWIDTH 500 0
DWIDTH 12 0
BBX 12 24 0 -3
BITMAP
0000
0000
1F80
1800
1800
1800
1800
1800
1800
1800
1800
1800
1800
1800
1800
1800
1800
1800
1800
1800
1800
1F80
0000
0000
ENDCHAR

STARTCHAR onx92
ENCODING 92
SWIDTH 500 0
DWIDTH 12 0
BBX 12 24 0 -3
BITMAP
0000
0000
0000
78E0
3040
3040
3040
1880
1880
1880
7FE0
0D00
0D00
7FE0
0600
0600
0600
0600
0600
0600
0F00
0000
0000
0000
ENDCHAR

STARTCHAR onx93
ENCODING 93
SWIDTH 500 0
DWIDTH 12 0
BBX 12 24 0 -3
BITMAP
0000
0000
1F80
0180
0180
0180
0180
0180
0180
0180
0180
0180
0180
0180
0180
0180
0180
0180
0180
0180
0180
1F80
0000
0000
ENDCHAR

STARTCHAR onx94
ENCODING 94
SWIDTH 500 0
DWIDTH 12 0
BBX 12 24 0 -3
BITMAP
0000
0400
0E00
1B00
3180
60C0
0000
0000
0000
0000
0000
0000
0000
0000
0000
0000
0000
0000
0000
0000
0000
0000
0000
0000
ENDCHAR

STARTCHAR onx95
ENCODING 95
SWIDTH 500 0
DWIDTH 12 0
BBX 12 24 0 -3
BITMAP
0000
0000
0000
0000
0000
0000
0000
0000
0000
0000
0000
0000
0000
0000
0000
0000
0000
0000
0000
0000
0000
0000
7FE0
0000
ENDCHAR

STARTCHAR onx96
ENCODING 96
SWIDTH 500 0
DWIDTH 12 0
BBX 12 24 0 -3
BITMAP
0000
00C0
0180
0180
03C0
0180
0000
0000
0000
0000
0000
0000
0000
0000
0000
0000
0000
0000
0000
0000
0000
0000
0000
0000
ENDCHAR

STARTCHAR onx97
ENCODING 97
SWIDTH 500 0
DWIDTH 12 0
BBX 12 24 0 -3
BITMAP
0000
0000
0000
0000
0000
0000
0000
0000
0000
0E00
3100
3180
0180
0F80
3180
6180
6180
6180
6180
33A0
1CC0
0000
0000
0000
ENDCHAR

STARTCHAR onx98
ENCODING 98
SWIDTH 500 0
DWIDTH 12 0
BBX 12 24 0 -3
BITMAP
0000
0000
0000
3000
7000
3000
3000
3000
3000
3700
38C0
30C0
3060
3060
3060
3060
3060
3060
30C0
38C0
2700
0000
0000
0000
ENDCHAR

STARTCHAR onx99
ENCODING 99
SWIDTH 500 0
DWIDTH 12 0
BBX 12 24 0 -3
BITMAP
0000
0000
0000
0000
0000
0000
0000
0000
0000
0F00
30C0
30C0
6000
6000
6000
6000
6000
6000
3040
3080
0F00
0000
0000
0000
ENDCHAR

STARTCHAR onx100
ENCODING 100
SWIDTH 500 0
DWIDTH 12 0
BBX 12 24 0 -3
BITMAP
0000
0000
0000
00C0
01C0
00C0
00C0
00C0
00C0
0EC0
31C0
30C0
60C0
60C0
60C0
60C0
60C0
60C0
30C0
31C0
0EE0
0000
0000
0000
ENDCHAR

STARTCHAR onx101
ENCODING 101
SWIDTH 500 0
DWIDTH 12 0
BBX 12 24 0 -3
BITMAP
0000
0000
0000
0000
0000
0000
0000
0000
0000
0F00
30C0
3040
6060
6060
7FE0
6000
6000
6000
3020
30C0
0F00
0000
0000
0000
ENDCHAR

STARTCHAR onx102
ENCODING 102
SWIDTH 500 0
DWIDTH 12 0
BBX 12 24 0 -3
BITMAP
0000
0000
0000
0380
06C0
06C0
0600
0600
0600
3FC0
0600
0600
0600
0600
0600
0600
0600
0600
0600
0600
1F80
0000
0000
0000
ENDCHAR

STARTCHAR onx103
ENCODING 103
SWIDTH 500 0
DWIDTH 12 0
BBX 12 24 0 -3
BITMAP
0000
0000
0000
0000
0000
0000
0000
0000
0000
06E0
19A0
30C0
30C0
1980
0E00
1000
1F00
0FC0
30E0
6060
6060
30C0
0F00
0000
ENDCHAR

STARTCHAR onx104
ENCODING 104
SWIDTH 500 0
DWIDTH 12 0
BBX 12 24 0 -3
BITMAP
0000
0000
0000
3000
7000
3000
3000
3000
3000
3780
38C0
30C0
30C0
30C0
30C0
30C0
30C0
30C0
30C0
30C0
79E0
0000
0000
0000
ENDCHAR

STARTCHAR onx105
ENCODING 105
SWIDTH 500 0
DWIDTH 12 0
BBX 12 24 0 -3
BITMAP
0000
0000
0000
0600
0F00
0600
0000
0000
0600
0E00
0600
0600
0600
0600
0600
0600
0600
0600
0600
0600
1F80
0000
0000
0000
ENDCHAR

STARTCHAR onx106
ENCODING 106
SWIDTH 500 0
DWIDTH 12 0
BBX 12 24 0 -3
BITMAP
0000
0000
0000
0300
0780
0300
0000
0000
0000
0300
0700
0300
0300
0300
0300
0300
0300
0300
0300
0300
1B00
1B00
0E00
0000
ENDCHAR

STARTCHAR onx107
ENCODING 107
SWIDTH 500 0
DWIDTH 12 0
BBX 12 24 0 -3
BITMAP
0000
0000
0000
3000
7000
3000
3000
3000
3000
31E0
30C0
3180
3300
3600
3E00
3300
3300
3180
3180
30C0
79E0
0000
0000
0000
ENDCHAR

STARTCHAR onx108
ENCODING 108
SWIDTH 500 0
DWIDTH 12 0
BBX 12 24 0 -3
BITMAP
0000
0000
0000
0E00
0600
0600
0600
0600
0600
0600
0600
0600
0600
0600
0600
0600
0600
0600
0600
0600
1F80
0000
0000
0000
ENDCHAR

STARTCHAR onx109
ENCODING 109
SWIDTH 500 0
DWIDTH 12 0
BBX 12 24 0 -3
BITMAP
0000
0000
0000
0000
0000
0000
0000
0000
0000
2DC0
7660
6660
6660
6660
6660
6660
6660
6660
6660
6660
6660
0000
0000
0000
ENDCHAR

STARTCHAR onx110
ENCODING 110
SWIDTH 500 0
DWIDTH 12 0
BBX 12 24 0 -3
BITMAP
0000
0000
0000
0000
0000
0000
0000
0000
0000
3780
78C0
30C0
30C0
30C0
30C0
30C0
30C0
30C0
30C0
30C0
79E0
0000
0000
0000
ENDCHAR

STARTCHAR onx111
ENCODING 111
SWIDTH 500 0
DWIDTH 12 0
BBX 12 24 0 -3
BITMAP
0000
0000
0000
0000
0000
0000
0000
0000
0000
0F00
30C0
30C0
6060
6060
6060
6060
6060
6060
30C0
30C0
0F00
0000
0000
0000
ENDCHAR

STARTCHAR onx112
ENCODING 112
SWIDTH 500 0
DWIDTH 12 0
BBX 12 24 0 -3
BITMAP
0000
0000
0000
0000
0000
0000
0000
0000
0000
3700
78C0
30C0
3060
3060
3060
3060
3060
30C0
38C0
3700
3000
3000
7800
0000
ENDCHAR

STARTCHAR onx113
ENCODING 113
SWIDTH 500 0
DWIDTH 12 0
BBX 12 24 0 -3
BITMAP
0000
0000
0000
0000
0000
0000
0000
0000
0000
0E60
31C0
30C0
60C0
60C0
60C0
60C0
60C0
30C0
31C0
0EC0
00C0
00C0
01E0
0000
ENDCHAR

STARTCHAR onx114
ENCODING 114
SWIDTH 500 0
DWIDTH 12 0
BBX 12 24 0 -3
BITMAP
0000
0000
0000
0000
0000
0000
0000
0000
0000
19C0
3BE0
1C60
1800
1800
1800
1800
1800
1800
1800
1800
3C00
0000
0000
0000
ENDCHAR

STARTCHAR onx115
ENCODING 115
SWIDTH 500 0
DWIDTH 12 0
BBX 12 24 0 -3
BITMAP
0000
0000
0000
0000
0000
0000
0000
0000
0000
1F00
20C0
60C0
6000
3800
1E00
0780
01C0
00C0
60C0
6180
1E00
0000
0000
0000
ENDCHAR

STARTCHAR onx116
ENCODING 116
SWIDTH 500 0
DWIDTH 12 0
BBX 12 24 0 -3
BITMAP
0000
0000
0000
0000
0000
0C00
0C00
0C00
1C00
7FC0
0C00
0C00
0C00
0C00
0C00
0C00
0C00
0C00
0C40
0C80
0700
0000
0000
0000
ENDCHAR

STARTCHAR onx117
ENCODING 117
SWIDTH 500 0
DWIDTH 12 0
BBX 12 24 0 -3
BITMAP
0000
0000
0000
0000
0000
0000
0000
0000
0000
30C0
71C0
30C0
30C0
30C0
30C0
30C0
30C0
30C0
30C0
31C0
1EE0
0000
0000
0000
ENDCHAR

STARTCHAR onx118
ENCODING 118
SWIDTH 500 0
DWIDTH 12 0
BBX 12 24 0 -3
BITMAP
0000
0000
0000
0000
0000
0000
0000
0000
0000
78E0
3040
3040
18C0
1880
1880
0D80
0D00
0F00
0600
0600
0600
0000
0000
0000
ENDCHAR

STARTCHAR onx119
ENCODING 119
SWIDTH 500 0
DWIDTH 12 0
BBX 12 24 0 -3
BITMAP
0000
0000
0000
0000
0000
0000
0000
0000
0000
6020
6220
6220
6220
3760
3540
3540
3540
1DC0
1980
1980
1980
0000
0000
0000
ENDCHAR

STARTCHAR onx120
ENCODING 120
SWIDTH 500 0
DWIDTH 12 0
BBX 12 24 0 -3
BITMAP
0000
0000
0000
0000
0000
0000
0000
0000
0000
78E0
3040
1880
1900
0D00
0600
0600
0B00
0980
1180
20C0
71E0
0000
0000
0000
ENDCHAR

STARTCHAR onx121
ENCODING 121
SWIDTH 500 0
DWIDTH 12 0
BBX 12 24 0 -3
BITMAP
0000
0000
0000
0000
0000
0000
0000
0000
0000
78E0
3040
30C0
1880
1980
0D00
0F00
0600
0600
0400
0C00
6800
7800
3000
0000
ENDCHAR

STARTCHAR onx122
ENCODING 122
SWIDTH 500 0
DWIDTH 12 0
BBX 12 24 0 -3
BITMAP
0000
0000
0000
0000
0000
0000
0000
0000
0000
7FC0
60C0
40C0
4180
0300
0600
0C00
1800
3040
6040
60C0
7FC0
0000
0000
0000
ENDCHAR

STARTCHAR onx123
ENCODING 123
SWIDTH 500 0
DWIDTH 12 0
BBX 12 24 0 -3
BITMAP
0000
0080
0100
0100
0300
0300
0300
0300
0300
0200
0600
0C00
0600
0200
0300
0300
0300
0300
0300
0100
0100
0080
0000
0000
ENDCHAR

STARTCHAR onx124
ENCODING 124
SWIDTH 500 0
DWIDTH 12 0
BBX 12 24 0 -3
BITMAP
0000
0000
0600
0600
0600
0600
0600
0600
0600
0600
0600
0000
0600
0600
0600
0600
0600
0600
0600
0600
0600
0000
0000
0000
ENDCHAR

STARTCHAR onx125
ENCODING 125
SWIDTH 500 0
DWIDTH 12 0
BBX 12 24 0 -3
BITMAP
0000
1000
0800
0800
0C00
0C00
0C00
0C00
0C00
0400
0600
0300
0600
0400
0C00
0C00
0C00
0C00
0C00
0800
0800
1000
0000
0000
ENDCHAR

STARTCHAR onx126
ENCODING 126
SWIDTH 500 0
DWIDTH 12 0
BBX 12 24 0 -3
BITMAP
0000
0000
0000
0000
0000
0000
0000
0000
0000
0000
1C20
3E20
47C0
4380
0000
0000
0000
0000
0000
0000
0000
0000
0000
0000
ENDCHAR

STARTCHAR onx127
ENCODING 127
SWIDTH 500 0
DWIDTH 12 0
BBX 12 24 0 -3
BITMAP
0000
5540
2AA0
5540
2AA0
5540
2AA0
5540
2AA0
5540
2AA0
5540
2AA0
5540
2AA0
5540
2AA0
5540
2AA0
5540
2AA0
5540
2AA0
0000
ENDCHAR

STARTCHAR onx128
ENCODING 128
SWIDTH 500 0
DWIDTH 12 0
BBX 12 24 0 -3
BITMAP
0000
0000
3C00
4200
4200
4200
3C00
4200
4200
4200
3C00
0000
03C0
0420
0420
0420
0420
0420
0420
0420
03C0
0000
0000
0000
ENDCHAR

STARTCHAR onx129
ENCODING 129
SWIDTH 500 0
DWIDTH 12 0
BBX 12 24 0 -3
BITMAP
0000
0000
3C00
4200
4200
4200
3C00
4200
4200
4200
3C00
0000
0080
0180
0280
0080
0080
0080
0080
0080
03E0
0000
0000
0000
ENDCHAR

STARTCHAR onx130
ENCODING 130
SWIDTH 500 0
DWIDTH 12 0
BBX 12 24 0 -3
BITMAP
0000
0000
3C00
4200
4200
4200
3C00
4200
4200
4200
3C00
0000
03C0
0420
0420
0040
0080
0100
0200
0400
07E0
0000
0000
0000
ENDCHAR

STARTCHAR onx131
ENCODING 131
SWIDTH 500 0
DWIDTH 12 0
BBX 12 24 0 -3
BITMAP
0000
0000
3C00
4200
4200
4200
3C00
4200
4200
4200
3C00
0000
03C0
0420
0020
0020
01C0
0020
0020
0420
03C0
0000
0000
0000
ENDCHAR

STARTCHAR onx132
ENCODING 132
SWIDTH 500 0
DWIDTH 12 0
BBX 12 24 0 -3
BITMAP
0000
0000
3C00
4200
4200
4200
3C00
4200
4200
4200
3C00
0000
0080
0180
0280
0480
0880
0880
0FC0
0080
0080
0000
0000
0000
ENDCHAR

STARTCHAR onx133
ENCODING 133
SWIDTH 500 0
DWIDTH 12 0
BBX 12 24 0 -3
BITMAP
0000
0000
3C00
4200
4200
4200
3C00
4200
4200
4200
3C00
0000
07E0
0400
0400
0400
07C0
0020
0020
0420
03C0
0000
0000
0000
ENDCHAR

STARTCHAR onx134
ENCODING 134
SWIDTH 500 0
DWIDTH 12 0
BBX 12 24 0 -3
BITMAP
0000
0000
3C00
4200
4200
4200
3C00
4200
4200
4200
3C00
0000
03C0
0420
0400
0400
07C0
0420
0420
0420
03C0
0000
0000
0000
ENDCHAR

STARTCHAR onx135
ENCODING 135
SWIDTH 500 0
DWIDTH 12 0
BBX 12 24 0 -3
BITMAP
0000
0000
3C00
4200
4200
4200
3C00
4200
4200
4200
3C00
0000
07E0
0020
0040
0040
0080
0080
0100
0100
0100
0000
0000
0000
ENDCHAR

STARTCHAR onx136
ENCODING 136
SWIDTH 500 0
DWIDTH 12 0
BBX 12 24 0 -3
BITMAP
0000
0000
3C00
4200
4200
4200
3C00
4200
4200
4200
3C00
0000
03C0
0420
0420
0420
03C0
0420
0420
0420
03C0
0000
0000
0000
ENDCHAR

STARTCHAR onx137
ENCODING 137
SWIDTH 500 0
DWIDTH 12 0
BBX 12 24 0 -3
BITMAP
0000
0000
3C00
4200
4200
4200
3C00
4200
4200
4200
3C00
0000
03C0
0420
0420
0420
03E0
0020
0020
0420
03C0
0000
0000
0000
ENDCHAR

STARTCHAR onx138
ENCODING 138
SWIDTH 500 0
DWIDTH 12 0
BBX 12 24 0 -3
BITMAP
0000
0000
3C00
4200
4200
4200
3C00
4200
4200
4200
3C00
0000
0180
0180
0240
0240
0420
07E0
0420
0420
0420
0000
0000
0000
ENDCHAR

STARTCHAR onx139
ENCODING 139
SWIDTH 500 0
DWIDTH 12 0
BBX 12 24 0 -3
BITMAP
0000
0000
3C00
4200
4200
4200
3C00
4200
4200
4200
3C00
0000
07C0
0220
0220
0220
03C0
0220
0220
0220
07C0
0000
0000
0000
ENDCHAR

STARTCHAR onx140
ENCODING 140
SWIDTH 500 0
DWIDTH 12 0
BBX 12 24 0 -3
BITMAP
0000
0000
3C00
4200
4200
4200
3C00
4200
4200
4200
3C00
0000
03C0
0420
0420
0400
0400
0400
0400
0420
03C0
0000
0000
0000
ENDCHAR

STARTCHAR onx141
ENCODING 141
SWIDTH 500 0
DWIDTH 12 0
BBX 12 24 0 -3
BITMAP
0000
0000
3C00
4200
4200
4200
3C00
4200
4200
4200
3C00
0000
0780
0440
0420
0420
0420
0420
0420
0440
0780
0000
0000
0000
ENDCHAR

STARTCHAR onx142
ENCODING 142
SWIDTH 500 0
DWIDTH 12 0
BBX 12 24 0 -3
BITMAP
0000
0000
3C00
4200
4200
4200
3C00
4200
4200
4200
3C00
0000
07E0
0400
0400
0400
07C0
0400
0400
0400
07E0
0000
0000
0000
ENDCHAR

STARTCHAR onx143
ENCODING 143
SWIDTH 500 0
DWIDTH 12 0
BBX 12 24 0 -3
BITMAP
0000
0000
3C00
4200
4200
4200
3C00
4200
4200
4200
3C00
0000
07E0
0400
0400
0400
07C0
0400
0400
0400
0400
0000
0000
0000
ENDCHAR

STARTCHAR onx144
ENCODING 144
SWIDTH 500 0
DWIDTH 12 0
BBX 12 24 0 -3
BITMAP
0000
0000
3C00
4200
4200
4200
3E00
0200
0200
4200
3C00
0000
03C0
0420
0420
0420
0420
0420
0420
0420
03C0
0000
0000
0000
ENDCHAR

STARTCHAR onx145
ENCODING 145
SWIDTH 500 0
DWIDTH 12 0
BBX 12 24 0 -3
BITMAP
0000
0000
3C00
4200
4200
4200
3E00
0200
0200
4200
3C00
0000
0080
0180
0280
0080
0080
0080
0080
0080
03E0
0000
0000
0000
ENDCHAR

STARTCHAR onx146
ENCODING 146
SWIDTH 500 0
DWIDTH 12 0
BBX 12 24 0 -3
BITMAP
0000
0000
3C00
4200
4200
4200
3E00
0200
0200
4200
3C00
0000
03C0
0420
0420
0040
0080
0100
0200
0400
07E0
0000
0000
0000
ENDCHAR

STARTCHAR onx147
ENCODING 147
SWIDTH 500 0
DWIDTH 12 0
BBX 12 24 0 -3
BITMAP
0000
0000
3C00
4200
4200
4200
3E00
0200
0200
4200
3C00
0000
03C0
0420
0020
0020
01C0
0020
0020
0420
03C0
0000
0000
0000
ENDCHAR

STARTCHAR onx148
ENCODING 148
SWIDTH 500 0
DWIDTH 12 0
BBX 12 24 0 -3
BITMAP
0000
0000
3C00
4200
4200
4200
3E00
0200
0200
4200
3C00
0000
0080
0180
0280
0480
0880
0880
0FC0
0080
0080
0000
0000
0000
ENDCHAR

STARTCHAR onx149
ENCODING 149
SWIDTH 500 0
DWIDTH 12 0
BBX 12 24 0 -3
BITMAP
0000
0000
3C00
4200
4200
4200
3E00
0200
0200
4200
3C00
0000
07E0
0400
0400
0400
07C0
0020
0020
0420
03C0
0000
0000
0000
ENDCHAR

STARTCHAR onx150
ENCODING 150
SWIDTH 500 0
DWIDTH 12 0
BBX 12 24 0 -3
BITMAP
0000
0000
3C00
4200
4200
4200
3E00
0200
0200
4200
3C00
0000
03C0
0420
0400
0400
07C0
0420
0420
0420
03C0
0000
0000
0000
ENDCHAR

STARTCHAR onx151
ENCODING 151
SWIDTH 500 0
DWIDTH 12 0
BBX 12 24 0 -3
BITMAP
0000
0000
3C00
4200
4200
4200
3E00
0200
0200
4200
3C00
0000
07E0
0020
0040
0040
0080
0080
0100
0100
0100
0000
0000
0000
ENDCHAR

STARTCHAR onx152
ENCODING 152
SWIDTH 500 0
DWIDTH 12 0
BBX 12 24 0 -3
BITMAP
0000
0000
3C00
4200
4200
4200
3E00
0200
0200
4200
3C00
0000
03C0
0420
0420
0420
03C0
0420
0420
0420
03C0
0000
0000
0000
ENDCHAR

STARTCHAR onx153
ENCODING 153
SWIDTH 500 0
DWIDTH 12 0
BBX 12 24 0 -3
BITMAP
0000
0000
3C00
4200
4200
4200
3E00
0200
0200
4200
3C00
0000
03C0
0420
0420
0420
03E0
0020
0020
0420
03C0
0000
0000
0000
ENDCHAR

STARTCHAR onx154
ENCODING 154
SWIDTH 500 0
DWIDTH 12 0
BBX 12 24 0 -3
BITMAP
0000
0000
3C00
4200
4200
4200
3E00
0200
0200
4200
3C00
0000
0180
0180
0240
0240
0420
07E0
0420
0420
0420
0000
0000
0000
ENDCHAR

STARTCHAR onx155
ENCODING 155
SWIDTH 500 0
DWIDTH 12 0
BBX 12 24 0 -3
BITMAP
0000
0000
3C00
4200
4200
4200
3E00
0200
0200
4200
3C00
0000
07C0
0220
0220
0220
03C0
0220
0220
0220
07C0
0000
0000
0000
ENDCHAR

STARTCHAR onx156
ENCODING 156
SWIDTH 500 0
DWIDTH 12 0
BBX 12 24 0 -3
BITMAP
0000
0000
3C00
4200
4200
4200
3E00
0200
0200
4200
3C00
0000
03C0
0420
0420
0400
0400
0400
0400
0420
03C0
0000
0000
0000
ENDCHAR

STARTCHAR onx157
ENCODING 157
SWIDTH 500 0
DWIDTH 12 0
BBX 12 24 0 -3
BITMAP
0000
0000
3C00
4200
4200
4200
3E00
0200
0200
4200
3C00
0000
0780
0440
0420
0420
0420
0420
0420
0440
0780
0000
0000
0000
ENDCHAR

STARTCHAR onx158
ENCODING 158
SWIDTH 500 0
DWIDTH 12 0
BBX 12 24 0 -3
BITMAP
0000
0000
3C00
4200
4200
4200
3E00
0200
0200
4200
3C00
0000
07E0
0400
0400
0400
07C0
0400
0400
0400
07E0
0000
0000
0000
ENDCHAR

STARTCHAR onx159
ENCODING 159
SWIDTH 500 0
DWIDTH 12 0
BBX 12 24 0 -3
BITMAP
0000
0000
3C00
4200
4200
4200
3E00
0200
0200
4200
3C00
0000
07E0
0400
0400
0400
07C0
0400
0400
0400
0400
0000
0000
0000
ENDCHAR

STARTCHAR onx160
ENCODING 160
SWIDTH 500 0
DWIDTH 12 0
BBX 12 24 0 -3
BITMAP
0000
0000
1800
1800
2400
2400
4200
7E00
4200
4200
4200
0000
03C0
0420
0420
0420
0420
0420
0420
0420
03C0
0000
0000
0000
ENDCHAR

STARTCHAR onx161
ENCODING 161
SWIDTH 500 0
DWIDTH 12 0
BBX 12 24 0 -3
BITMAP
0000
0000
0000
0000
0000
0000
0000
0000
0000
0000
0000
0000
0000
0000
0000
0000
0000
1C00
3600
2200
3600
1C00
0000
0000
ENDCHAR

STARTCHAR onx162
ENCODING 162
SWIDTH 500 0
DWIDTH 12 0
BBX 12 24 0 -3
BITMAP
0000
0000
0FE0
0800
0800
0800
0800
0800
0800
0800
0800
0800
0800
0800
0800
0800
0800
0800
0800
0800
0800
0000
0000
0000
ENDCHAR

STARTCHAR onx163
ENCODING 163
SWIDTH 500 0
DWIDTH 12 0
BBX 12 24 0 -3
BITMAP
0000
0000
0100
0100
0100
0100
0100
0100
0100
0100
0100
0100
0100
0100
0100
0100
0100
0100
0100
0100
7F00
0000
0000
0000
ENDCHAR

STARTCHAR onx164
ENCODING 164
SWIDTH 500 0
DWIDTH 12 0
BBX 12 24 0 -3
BITMAP
0000
0000
0000
0000
0000
0000
0000
0000
0000
0000
0000
0000
0000
0000
0000
0000
0000
3000
1800
0C00
0E00
0600
0000
0000
ENDCHAR

STARTCHAR onx165
ENCODING 165
SWIDTH 500 0
DWIDTH 12 0
BBX 12 24 0 -3
BITMAP
0000
0000
0000
0000
0000
0000
0000
0000
0000
0000
0600
0F00
0600
0000
0000
0000
0000
0000
0000
0000
0000
0000
0000
0000
ENDCHAR

STARTCHAR onx166
ENCODING 166
SWIDTH 500 0
DWIDTH 12 0
BBX 12 24 0 -3
BITMAP
0000
0000
0000
0000
00C0
7FE0
00C0
00C0
00C0
00C0
3FC0
00C0
00C0
0180
0180
0180
0300
0300
0600
0C00
1000
0000
0000
0000
ENDCHAR

STARTCHAR onx167
ENCODING 167
SWIDTH 500 0
DWIDTH 12 0
BBX 12 24 0 -3
BITMAP
0000
0000
0000
0000
0000
0000
0000
0000
0000
0000
7FC0
0060
0060
0CC0
0700
0600
0600
0C00
0C00
1800
2000
0000
0000
0000
ENDCHAR

STARTCHAR onx168
ENCODING 168
SWIDTH 500 0
DWIDTH 12 0
BBX 12 24 0 -3
BITMAP
0000
0000
0000
0000
0000
0000
0000
0000
0000
0080
00C0
0180
0300
0700
0F00
1B00
3300
4300
0300
0300
0100
0000
0000
0000
ENDCHAR

STARTCHAR onx169
ENCODING 169
SWIDTH 500 0
DWIDTH 12 0
BBX 12 24 0 -3
BITMAP
0000
0000
0000
0000
0000
0000
0000
0000
0C00
0600
66C0
3FE0
30C0
30C0
10C0
0180
0180
0300
0600
0C00
1000
0000
0000
0000
ENDCHAR

STARTCHAR onx170
ENCODING 170
SWIDTH 500 0
DWIDTH 12 0
BBX 12 24 0 -3
BITMAP
0000
0000
0000
0000
0000
0000
0000
0000
0000
0000
0000
3FC0
0600
0600
0600
0600
0600
0600
0600
7FE0
0000
0000
0000
0000
ENDCHAR

STARTCHAR onx171
ENCODING 171
SWIDTH 500 0
DWIDTH 12 0
BBX 12 24 0 -3
BITMAP
0000
0000
0000
0000
0000
0000
0000
0000
0000
0300
0180
0180
7FE0
0180
0380
0780
0D80
1980
6180
0780
0180
0000
0000
0000
ENDCHAR

STARTCHAR onx172
ENCODING 172
SWIDTH 500 0
DWIDTH 12 0
BBX 12 24 0 -3
BITMAP
0000
0000
0000
0000
0000
0000
0000
0000
3000
1800
1840
1FE0
7C60
0CC0
0D80
0C00
0600
0600
0600
0600
0200
0000
0000
0000
ENDCHAR

STARTCHAR onx173
ENCODING 173
SWIDTH 500 0
DWIDTH 12 0
BBX 12 24 0 -3
BITMAP
0000
0000
0000
0000
0000
0000
0000
0000
0000
0000
0180
3FC0
0180
0180
0180
0300
0300
0300
0300
7FE0
0000
0000
0000
0000
ENDCHAR

STARTCHAR onx174
ENCODING 174
SWIDTH 500 0
DWIDTH 12 0
BBX 12 24 0 -3
BITMAP
0000
0000
0000
0000
0000
0000
0000
0000
0000
0000
00C0
3FE0
00C0
00C0
00C0
1FC0
00C0
00C0
00C0
7FC0
00C0
0000
0000
0000
ENDCHAR

STARTCHAR onx175
ENCODING 175
SWIDTH 500 0
DWIDTH 12 0
BBX 12 24 0 -3
BITMAP
0000
0000
0000
0000
0000
0000
0000
0000
0000
0000
0CC0
6660
3660
3060
00C0
00C0
0180
0180
0300
0600
0800
0000
0000
0000
ENDCHAR

STARTCHAR onx176
ENCODING 176
SWIDTH 500 0
DWIDTH 12 0
BBX 12 24 0 -3
BITMAP
0000
0000
0000
0000
0000
0000
0000
0000
0000
0000
4000
3FE0
0000
0000
0000
0000
0000
0000
0000
0000
0000
0000
0000
0000
ENDCHAR

STARTCHAR onx177
ENCODING 177
SWIDTH 500 0
DWIDTH 12 0
BBX 12 24 0 -3
BITMAP
0000
0000
0000
0000
0000
7FE0
0060
0060
00C0
0CC0
0780
0700
0600
0600
0600
0600
0600
0C00
0C00
1800
2000
0000
0000
0000
ENDCHAR

STARTCHAR onx178
ENCODING 178
SWIDTH 500 0
DWIDTH 12 0
BBX 12 24 0 -3
BITMAP
0000
0000
00C0
0060
00E0
00C0
0180
0300
0700
0F00
1B00
3300
6300
0300
0300
0300
0300
0300
0300
0300
0100
0000
0000
0000
ENDCHAR

STARTCHAR onx179
ENCODING 179
SWIDTH 500 0
DWIDTH 12 0
BBX 12 24 0 -3
BITMAP
0000
0000
0C00
0600
0600
66C0
3FE0
30C0
30C0
30C0
10C0
00C0
00C0
0180
0180
0180
0300
0300
0600
0C00
1000
0000
0000
0000
ENDCHAR

STARTCHAR onx180
ENCODING 180
SWIDTH 500 0
DWIDTH 12 0
BBX 12 24 0 -3
BITMAP
0000
0000
0000
0000
0000
3FC0
0600
0600
0600
0600
0600
0600
0600
0600
0600
0600
0600
0600
0600
7FE0
0000
0000
0000
0000
ENDCHAR

STARTCHAR onx181
ENCODING 181
SWIDTH 500 0
DWIDTH 12 0
BBX 12 24 0 -3
BITMAP
0000
0000
0300
0180
0180
0180
0180
7FE0
0180
0380
0380
0780
0780
0D80
0D80
1980
1980
3180
6180
0780
0180
0000
0000
0000
ENDCHAR

STARTCHAR onx182
ENCODING 182
SWIDTH 500 0
DWIDTH 12 0
BBX 12 24 0 -3
BITMAP
0000
0000
1800
0C00
0C00
0CC0
7FE0
0CC0
0CC0
0CC0
0CC0
0CC0
18C0
18C0
18C0
18C0
3180
3180
2980
6700
4200
0000
0000
0000
ENDCHAR

STARTCHAR onx183
ENCODING 183
SWIDTH 500 0
DWIDTH 12 0
BBX 12 24 0 -3
BITMAP
0000
0000
1800
0C00
0C00
0C00
0FC0
7C00
0600
0600
0600
0600
07E0
7E00
0600
0300
0300
0300
0300
0300
0100
0000
0000
0000
ENDCHAR

STARTCHAR onx184
ENCODING 184
SWIDTH 500 0
DWIDTH 12 0
BBX 12 24 0 -3
BITMAP
0000
0000
1800
0C00
0C00
0C40
0FE0
18E0
18C0
30C0
3180
6180
0180
0300
0300
0600
0600
0C00
1800
3000
4000
0000
0000
0000
ENDCHAR

STARTCHAR onx185
ENCODING 185
SWIDTH 500 0
DWIDTH 12 0
BBX 12 24 0 -3
BITMAP
0000
0000
1800
0C00
0C00
0C40
0FE0
1980
1980
3180
3180
6180
0180
0180
0300
0300
0600
0600
0C00
1800
2000
0000
0000
0000
ENDCHAR

STARTCHAR onx186
ENCODING 186
SWIDTH 500 0
DWIDTH 12 0
BBX 12 24 0 -3
BITMAP
0000
0000
0000
0000
00C0
3FE0
00C0
00C0
00C0
00C0
00C0
00C0
00C0
00C0
00C0
00C0
00C0
00C0
00C0
3FC0
0000
0000
0000
0000
ENDCHAR

STARTCHAR onx187
ENCODING 187
SWIDTH 500 0
DWIDTH 12 0
BBX 12 24 0 -3
BITMAP
0000
0000
0300
3180
1980
1980
1980
1980
7FE0
1980
1980
1980
1980
0980
0180
0180
0300
0300
0600
0C00
3000
0000
0000
0000
ENDCHAR

STARTCHAR onx188
ENCODING 188
SWIDTH 500 0
DWIDTH 12 0
BBX 12 24 0 -3
BITMAP
0000
0000
0000
1000
0C00
0600
0600
0000
4000
3020
1820
1860
0040
00C0
0080
0180
0300
4E00
7C00
3800
1000
0000
0000
0000
ENDCHAR

STARTCHAR onx189
ENCODING 189
SWIDTH 500 0
DWIDTH 12 0
BBX 12 24 0 -3
BITMAP
0000
0000
0000
0000
00C0
3FE0
00C0
00C0
0180
0180
0180
0300
0300
0600
0700
0D80
0D80
18C0
18C0
30E0
6060
0000
0000
0000
ENDCHAR

STARTCHAR onx190
ENCODING 190
SWIDTH 500 0
DWIDTH 12 0
BBX 12 24 0 -3
BITMAP
0000
0000
3000
1800
1800
1800
1800
1840
7FE0
1860
1840
18C0
1980
1800
1800
1800
1800
1800
0CC0
07E0
0000
0000
0000
0000
ENDCHAR

STARTCHAR onx191
ENCODING 191
SWIDTH 500 0
DWIDTH 12 0
BBX 12 24 0 -3
BITMAP
0000
0000
0000
0000
00C0
6060
3060
1860
1860
0060
00C0
00C0
00C0
0180
0180
0300
0300
0600
0C00
1800
2000
0000
0000
0000
ENDCHAR

STARTCHAR onx192
ENCODING 192
SWIDTH 500 0
DWIDTH 12 0
BBX 12 24 0 -3
BITMAP
0000
0000
1800
0C00
0C00
0C40
0FE0
18E0
18C0
30C0
3180
6D80
0780
0300
0300
0600
0600
0C00
1800
3000
4000
0000
0000
0000
ENDCHAR

STARTCHAR onx193
ENCODING 193
SWIDTH 500 0
DWIDTH 12 0
BBX 12 24 0 -3
BITMAP
0000
0000
0180
01C0
0700
3E00
0300
0300
0300
7FE0
0300
0300
0300
0300
0300
0300
0600
0600
0C00
1800
2000
0000
0000
0000
ENDCHAR

STARTCHAR onx194
ENCODING 194
SWIDTH 500 0
DWIDTH 12 0
BBX 12 24 0 -3
BITMAP
0000
0000
0000
0000
18C0
4C60
6660
3660
3060
1060
0060
00C0
00C0
00C0
0180
0180
0300
0300
0600
0C00
1000
0000
0000
0000
ENDCHAR

STARTCHAR onx195
ENCODING 195
SWIDTH 500 0
DWIDTH 12 0
BBX 12 24 0 -3
BITMAP
0000
0000
0000
0000
3FC0
0000
0000
0000
0000
7FE0
0300
0300
0300
0300
0300
0300
0600
0600
0C00
1800
2000
0000
0000
0000
ENDCHAR

STARTCHAR onx196
ENCODING 196
SWIDTH 500 0
DWIDTH 12 0
BBX 12 24 0 -3
BITMAP
0000
0000
3000
1800
1800
1800
1800
1800
1800
1800
1F00
19C0
18E0
1860
1800
1800
1800
1800
1800
1800
0800
0000
0000
0000
ENDCHAR

STARTCHAR onx197
ENCODING 197
SWIDTH 500 0
DWIDTH 12 0
BBX 12 24 0 -3
BITMAP
0000
0000
0600
0300
0300
0300
0300
7FE0
0300
0300
0300
0300
0300
0300
0300
0300
0600
0600
0C00
1800
2000
0000
0000
0000
ENDCHAR

STARTCHAR onx198
ENCODING 198
SWIDTH 500 0
DWIDTH 12 0
BBX 12 24 0 -3
BITMAP
0000
0000
0000
0000
0000
0080
3FC0
1000
0000
0000
0000
0000
0000
0000
0000
0000
0000
0040
7FE0
2000
0000
0000
0000
0000
ENDCHAR

STARTCHAR onx199
ENCODING 199
SWIDTH 500 0
DWIDTH 12 0
BBX 12 24 0 -3
BITMAP
0000
0000
0000
0000
00C0
3FE0
00C0
00C0
00C0
0180
0180
1980
0F00
0700
0300
0780
0CC0
0CE0
1860
3000
4000
0000
0000
0000
ENDCHAR

STARTCHAR onx200
ENCODING 200
SWIDTH 500 0
DWIDTH 12 0
BBX 12 24 0 -3
BITMAP
0000
0000
0C00
0700
0300
0040
7FE0
00E0
00C0
0180
0300
0600
0F80
1EC0
3660
4660
0600
0600
0600
0600
0200
0000
0000
0000
ENDCHAR

STARTCHAR onx201
ENCODING 201
SWIDTH 500 0
DWIDTH 12 0
BBX 12 24 0 -3
BITMAP
0000
0000
0000
0180
00C0
00C0
00C0
00C0
00C0
0180
0180
0180
0300
0300
0300
0600
0600
0C00
1800
3000
4000
0000
0000
0000
ENDCHAR

STARTCHAR onx202
ENCODING 202
SWIDTH 500 0
DWIDTH 12 0
BBX 12 24 0 -3
BITMAP
0000
0000
0000
0000
0600
0300
0180
0180
18C0
0CC0
0CC0
0C60
0C60
1860
1860
1860
3060
3060
6060
4020
0000
0000
0000
0000
ENDCHAR

STARTCHAR onx203
ENCODING 203
SWIDTH 500 0
DWIDTH 12 0
BBX 12 24 0 -3
BITMAP
0000
0000
6000
3000
3000
3000
3000
30C0
31E0
3380
3600
3C00
3000
3000
3000
3000
3000
3000
18C0
0FE0
0000
0000
0000
0000
ENDCHAR

STARTCHAR onx204
ENCODING 204
SWIDTH 500 0
DWIDTH 12 0
BBX 12 24 0 -3
BITMAP
0000
0000
0000
0000
00C0
7FE0
00C0
00C0
00C0
00C0
00C0
0180
0180
0180
0300
0300
0600
0600
0C00
1800
2000
0000
0000
0000
ENDCHAR

STARTCHAR onx205
ENCODING 205
SWIDTH 500 0
DWIDTH 12 0
BBX 12 24 0 -3
BITMAP
0000
0000
0000
0000
0800
1C00
1600
3300
3300
6180
6180
40C0
00C0
00C0
0060
0060
0060
0060
0060
0000
0000
0000
0000
0000
ENDCHAR

STARTCHAR onx206
ENCODING 206
SWIDTH 500 0
DWIDTH 12 0
BBX 12 24 0 -3
BITMAP
0000
0000
0C00
0600
0600
0600
0600
7FE0
0600
0600
0600
0600
0600
36C0
36C0
6660
6660
4660
0600
0E00
0600
0000
0000
0000
ENDCHAR

STARTCHAR onx207
ENCODING 207
SWIDTH 500 0
DWIDTH 12 0
BBX 12 24 0 -3
BITMAP
0000
0000
0000
0000
0000
0040
7FE0
00E0
00C0
00C0
0180
0180
0300
4300
3600
1C00
0E00
0700
0380
0180
0000
0000
0000
0000
ENDCHAR

STARTCHAR onx208
ENCODING 208
SWIDTH 500 0
DWIDTH 12 0
BBX 12 24 0 -3
BITMAP
0000
0000
0000
0000
1800
0E00
0380
01C0
00C0
1800
0E00
0300
0380
0180
0000
0000
3800
0E00
0380
01C0
00C0
0000
0000
0000
ENDCHAR

STARTCHAR onx209
ENCODING 209
SWIDTH 500 0
DWIDTH 12 0
BBX 12 24 0 -3
BITMAP
0000
0000
0000
0C00
0600
0600
0600
0600
0C00
0C00
0C00
0C00
1800
1800
1980
30C0
30E0
73E0
7E60
3060
0000
0000
0000
0000
ENDCHAR

STARTCHAR onx210
ENCODING 210
SWIDTH 500 0
DWIDTH 12 0
BBX 12 24 0 -3
BITMAP
0000
0000
0000
0180
00C0
00C0
00C0
00C0
0180
3180
1D80
0700
0300
0380
06C0
0660
0C60
0C00
1800
3000
4000
0000
0000
0000
ENDCHAR

STARTCHAR onx211
ENCODING 211
SWIDTH 500 0
DWIDTH 12 0
BBX 12 24 0 -3
BITMAP
0000
0000
0000
0000
3FC0
0C00
0C00
0C00
0C00
0C00
7FE0
0C00
0C00
0C00
0C00
0C00
0C00
0C00
06C0
03E0
0000
0000
0000
0000
ENDCHAR

STARTCHAR onx212
ENCODING 212
SWIDTH 500 0
DWIDTH 12 0
BBX 12 24 0 -3
BITMAP
0000
0000
3000
1800
1800
1840
1FE0
7C60
0C40
0CC0
0D80
0C00
0600
0600
0600
0600
0300
0300
0300
0300
0100
0000
0000
0000
ENDCHAR

STARTCHAR onx213
ENCODING 213
SWIDTH 500 0
DWIDTH 12 0
BBX 12 24 0 -3
BITMAP
0000
0000
0000
0000
0180
3FC0
0180
0180
0180
0180
0180
0180
0180
0300
0300
0300
0300
0300
0300
7FE0
0000
0000
0000
0000
ENDCHAR

STARTCHAR onx214
ENCODING 214
SWIDTH 500 0
DWIDTH 12 0
BBX 12 24 0 -3
BITMAP
0000
0000
0000
0000
00C0
3FE0
00C0
00C0
00C0
00C0
00C0
00C0
1FC0
00C0
00C0
00C0
00C0
00C0
00C0
7FC0
00C0
0000
0000
0000
ENDCHAR

STARTCHAR onx215
ENCODING 215
SWIDTH 500 0
DWIDTH 12 0
BBX 12 24 0 -3
BITMAP
0000
0000
0000
0000
3F80
0000
0000
0000
00C0
7FE0
00C0
00C0
00C0
0180
0180
0300
0300
0600
0C00
1800
2000
0000
0000
0000
ENDCHAR

STARTCHAR onx216
ENCODING 216
SWIDTH 500 0
DWIDTH 12 0
BBX 12 24 0 -3
BITMAP
0000
0000
0000
6180
30C0
30C0
30C0
30C0
30C0
30C0
10C0
00C0
00C0
00C0
0180
0180
0180
0300
0300
0600
0800
0000
0000
0000
ENDCHAR

STARTCHAR onx217
ENCODING 217
SWIDTH 500 0
DWIDTH 12 0
BBX 12 24 0 -3
BITMAP
0000
0000
0000
0600
6300
3300
3300
3300
3300
3300
3300
3300
3300
3300
3320
3320
3360
3340
33C0
6380
0180
0000
0000
0000
ENDCHAR

STARTCHAR onx218
ENCODING 218
SWIDTH 500 0
DWIDTH 12 0
BBX 12 24 0 -3
BITMAP
0000
0000
0000
6000
3000
3000
3000
3000
3000
3000
3020
3020
3060
3040
30C0
3080
3180
3300
3600
3C00
1800
0000
0000
0000
ENDCHAR

STARTCHAR onx219
ENCODING 219
SWIDTH 500 0
DWIDTH 12 0
BBX 12 24 0 -3
BITMAP
0000
0000
0000
0000
60C0
3FE0
30C0
30C0
30C0
30C0
30C0
30C0
30C0
30C0
30C0
30C0
30C0
30C0
30C0
3FE0
3000
0000
0000
0000
ENDCHAR

STARTCHAR onx220
ENCODING 220
SWIDTH 500 0
DWIDTH 12 0
BBX 12 24 0 -3
BITMAP
0000
0000
0000
0000
60C0
3FE0
30C0
30C0
30C0
10C0
00C0
00C0
00C0
0180
0180
0180
0300
0300
0600
0C00
1000
0000
0000
0000
ENDCHAR

STARTCHAR onx221
ENCODING 221
SWIDTH 500 0
DWIDTH 12 0
BBX 12 24 0 -3
BITMAP
0000
0000
0000
0000
6000
3000
1800
1C00
0C00
0020
0020
0060
0040
00C0
0080
0180
0300
4E00
7C00
3800
1000
0000
0000
0000
ENDCHAR

STARTCHAR onx222
ENCODING 222
SWIDTH 500 0
DWIDTH 12 0
BBX 12 24 0 -3
BITMAP
0000
0000
0C00
0600
3300
1B00
0C00
0C00
0000
0000
0000
0000
0000
0000
0000
0000
0000
0000
0000
0000
0000
0000
0000
0000
ENDCHAR

STARTCHAR onx223
ENCODING 223
SWIDTH 500 0
DWIDTH 12 0
BBX 12 24 0 -3
BITMAP
0000
0000
1C00
3600
2200
3600
1C00
0000
0000
0000
0000
0000
0000
0000
0000
0000
0000
0000
0000
0000
0000
0000
0000
0000
ENDCHAR

STARTCHAR onx224
ENCODING 224
SWIDTH 500 0
DWIDTH 12 0
BBX 12 24 0 -3
BITMAP
0000
0000
7E00
4000
4000
4000
7C00
4000
4000
4000
7E00
0000
03C0
0420
0420
0420
0420
0420
0420
0420
03C0
0000
0000
0000
ENDCHAR

STARTCHAR onx225
ENCODING 225
SWIDTH 500 0
DWIDTH 12 0
BBX 12 24 0 -3
BITMAP
0000
0000
7E00
4000
4000
4000
7C00
4000
4000
4000
7E00
0000
0080
0180
0280
0080
0080
0080
0080
0080
03E0
0000
0000
0000
ENDCHAR

STARTCHAR onx226
ENCODING 226
SWIDTH 500 0
DWIDTH 12 0
BBX 12 24 0 -3
BITMAP
0000
0000
7E00
4000
4000
4000
7C00
4000
4000
4000
7E00
0000
03C0
0420
0420
0040
0080
0100
0200
0400
07E0
0000
0000
0000
ENDCHAR

STARTCHAR onx227
ENCODING 227
SWIDTH 500 0
DWIDTH 12 0
BBX 12 24 0 -3
BITMAP
0000
0000
7E00
4000
4000
4000
7C00
4000
4000
4000
7E00
0000
03C0
0420
0020
0020
01C0
0020
0020
0420
03C0
0000
0000
0000
ENDCHAR

STARTCHAR onx228
ENCODING 228
SWIDTH 500 0
DWIDTH 12 0
BBX 12 24 0 -3
BITMAP
0000
0000
7E00
4000
4000
4000
7C00
4000
4000
4000
7E00
0000
0080
0180
0280
0480
0880
0880
0FC0
0080
0080
0000
0000
0000
ENDCHAR

STARTCHAR onx229
ENCODING 229
SWIDTH 500 0
DWIDTH 12 0
BBX 12 24 0 -3
BITMAP
0000
0000
7E00
4000
4000
4000
7C00
4000
4000
4000
7E00
0000
07E0
0400
0400
0400
07C0
0020
0020
0420
03C0
0000
0000
0000
ENDCHAR

STARTCHAR onx230
ENCODING 230
SWIDTH 500 0
DWIDTH 12 0
BBX 12 24 0 -3
BITMAP
0000
0000
7E00
4000
4000
4000
7C00
4000
4000
4000
7E00
0000
03C0
0420
0400
0400
07C0
0420
0420
0420
03C0
0000
0000
0000
ENDCHAR

STARTCHAR onx231
ENCODING 231
SWIDTH 500 0
DWIDTH 12 0
BBX 12 24 0 -3
BITMAP
0000
0000
7E00
4000
4000
4000
7C00
4000
4000
4000
7E00
0000
07E0
0020
0040
0040
0080
0080
0100
0100
0100
0000
0000
0000
ENDCHAR

STARTCHAR onx232
ENCODING 232
SWIDTH 500 0
DWIDTH 12 0
BBX 12 24 0 -3
BITMAP
0000
0000
7E00
4000
4000
4000
7C00
4000
4000
4000
7E00
0000
03C0
0420
0420
0420
03C0
0420
0420
0420
03C0
0000
0000
0000
ENDCHAR

STARTCHAR onx233
ENCODING 233
SWIDTH 500 0
DWIDTH 12 0
BBX 12 24 0 -3
BITMAP
0000
0000
7E00
4000
4000
4000
7C00
4000
4000
4000
7E00
0000
03C0
0420
0420
0420
03E0
0020
0020
0420
03C0
0000
0000
0000
ENDCHAR

STARTCHAR onx234
ENCODING 234
SWIDTH 500 0
DWIDTH 12 0
BBX 12 24 0 -3
BITMAP
0000
0000
7E00
4000
4000
4000
7C00
4000
4000
4000
7E00
0000
0180
0180
0240
0240
0420
07E0
0420
0420
0420
0000
0000
0000
ENDCHAR

STARTCHAR onx235
ENCODING 235
SWIDTH 500 0
DWIDTH 12 0
BBX 12 24 0 -3
BITMAP
0000
0000
7E00
4000
4000
4000
7C00
4000
4000
4000
7E00
0000
07C0
0220
0220
0220
03C0
0220
0220
0220
07C0
0000
0000
0000
ENDCHAR

STARTCHAR onx236
ENCODING 236
SWIDTH 500 0
DWIDTH 12 0
BBX 12 24 0 -3
BITMAP
0000
0000
7E00
4000
4000
4000
7C00
4000
4000
4000
7E00
0000
03C0
0420
0420
0400
0400
0400
0400
0420
03C0
0000
0000
0000
ENDCHAR

STARTCHAR onx237
ENCODING 237
SWIDTH 500 0
DWIDTH 12 0
BBX 12 24 0 -3
BITMAP
0000
0000
7E00
4000
4000
4000
7C00
4000
4000
4000
7E00
0000
0780
0440
0420
0420
0420
0420
0420
0440
0780
0000
0000
0000
ENDCHAR

STARTCHAR onx238
ENCODING 238
SWIDTH 500 0
DWIDTH 12 0
BBX 12 24 0 -3
BITMAP
0000
0000
7E00
4000
4000
4000
7C00
4000
4000
4000
7E00
0000
07E0
0400
0400
0400
07C0
0400
0400
0400
07E0
0000
0000
0000
ENDCHAR

STARTCHAR onx239
ENCODING 239
SWIDTH 500 0
DWIDTH 12 0
BBX 12 24 0 -3
BITMAP
0000
0000
7E00
4000
4000
4000
7C00
4000
4000
4000
7E00
0000
07E0
0400
0400
0400
07C0
0400
0400
0400
0400
0000
0000
0000
ENDCHAR

STARTCHAR onx240
ENCODING 240
SWIDTH 500 0
DWIDTH 12 0
BBX 12 24 0 -3
BITMAP
0000
0000
7E00
4000
4000
4000
7C00
4000
4000
4000
4000
0000
03C0
0420
0420
0420
0420
0420
0420
0420
03C0
0000
0000
0000
ENDCHAR

STARTCHAR onx241
ENCODING 241
SWIDTH 500 0
DWIDTH 12 0
BBX 12 24 0 -3
BITMAP
0000
0000
7E00
4000
4000
4000
7C00
4000
4000
4000
4000
0000
0080
0180
0280
0080
0080
0080
0080
0080
03E0
0000
0000
0000
ENDCHAR

STARTCHAR onx242
ENCODING 242
SWIDTH 500 0
DWIDTH 12 0
BBX 12 24 0 -3
BITMAP
0000
0000
7E00
4000
4000
4000
7C00
4000
4000
4000
4000
0000
03C0
0420
0420
0040
0080
0100
0200
0400
07E0
0000
0000
0000
ENDCHAR

STARTCHAR onx243
ENCODING 243
SWIDTH 500 0
DWIDTH 12 0
BBX 12 24 0 -3
BITMAP
0000
0000
7E00
4000
4000
4000
7C00
4000
4000
4000
4000
0000
03C0
0420
0020
0020
01C0
0020
0020
0420
03C0
0000
0000
0000
ENDCHAR

STARTCHAR onx244
ENCODING 244
SWIDTH 500 0
DWIDTH 12 0
BBX 12 24 0 -3
BITMAP
0000
0000
7E00
4000
4000
4000
7C00
4000
4000
4000
4000
0000
0080
0180
0280
0480
0880
0880
0FC0
0080
0080
0000
0000
0000
ENDCHAR

STARTCHAR onx245
ENCODING 245
SWIDTH 500 0
DWIDTH 12 0
BBX 12 24 0 -3
BITMAP
0000
0000
7E00
4000
4000
4000
7C00
4000
4000
4000
4000
0000
07E0
0400
0400
0400
07C0
0020
0020
0420
03C0
0000
0000
0000
ENDCHAR

STARTCHAR onx246
ENCODING 246
SWIDTH 500 0
DWIDTH 12 0
BBX 12 24 0 -3
BITMAP
0000
0000
7E00
4000
4000
4000
7C00
4000
4000
4000
4000
0000
03C0
0420
0400
0400
07C0
0420
0420
0420
03C0
0000
0000
0000
ENDCHAR

STARTCHAR onx247
ENCODING 247
SWIDTH 500 0
DWIDTH 12 0
BBX 12 24 0 -3
BITMAP
0000
0000
7E00
4000
4000
4000
7C00
4000
4000
4000
4000
0000
07E0
0020
0040
0040
0080
0080
0100
0100
0100
0000
0000
0000
ENDCHAR

STARTCHAR onx248
ENCODING 248
SWIDTH 500 0
DWIDTH 12 0
BBX 12 24 0 -3
BITMAP
0000
0000
7E00
4000
4000
4000
7C00
4000
4000
4000
4000
0000
03C0
0420
0420
0420
03C0
0420
0420
0420
03C0
0000
0000
0000
ENDCHAR

STARTCHAR onx249
ENCODING 249
SWIDTH 500 0
DWIDTH 12 0
BBX 12 24 0 -3
BITMAP
0000
0000
7E00
4000
4000
4000
7C00
4000
4000
4000
4000
0000
03C0
0420
0420
0420
03E0
0020
0020
0420
03C0
0000
0000
0000
ENDCHAR

STARTCHAR onx250
ENCODING 250
SWIDTH 500 0
DWIDTH 12 0
BBX 12 24 0 -3
BITMAP
0000
0000
7E00
4000
4000
4000
7C00
4000
4000
4000
4000
0000
0180
0180
0240
0240
0420
07E0
0420
0420
0420
0000
0000
0000
ENDCHAR

STARTCHAR onx251
ENCODING 251
SWIDTH 500 0
DWIDTH 12 0
BBX 12 24 0 -3
BITMAP
0000
0000
7E00
4000
4000
4000
7C00
4000
4000
4000
4000
0000
07C0
0220
0220
0220
03C0
0220
0220
0220
07C0
0000
0000
0000
ENDCHAR

STARTCHAR onx252
ENCODING 252
SWIDTH 500 0
DWIDTH 12 0
BBX 12 24 0 -3
BITMAP
0000
0000
7E00
4000
4000
4000
7C00
4000
4000
4000
4000
0000
03C0
0420
0420
0400
0400
0400
0400
0420
03C0
0000
0000
0000
ENDCHAR

STARTCHAR onx253
ENCODING 253
SWIDTH 500 0
DWIDTH 12 0
BBX 12 24 0 -3
BITMAP
0000
0000
7E00
4000
4000
4000
7C00
4000
4000
4000
4000
0000
0780
0440
0420
0420
0420
0420
0420
0440
0780
0000
0000
0000
ENDCHAR

STARTCHAR onx254
ENCODING 254
SWIDTH 500 0
DWIDTH 12 0
BBX 12 24 0 -3
BITMAP
0000
0000
7E00
4000
4000
4000
7C00
4000
4000
4000
4000
0000
07E0
0400
0400
0400
07C0
0400
0400
0400
07E0
0000
0000
0000
ENDCHAR

STARTCHAR onx255
ENCODING 255
SWIDTH 500 0
DWIDTH 12 0
BBX 12 24 0 -3
BITMAP
0000
0000
7E00
4000
4000
4000
7C00
4000
4000
4000
4000
0000
0FC0
0800
0800
0800
0F80
0800
0800
0800
0800
0000
0000
0000
ENDCHAR
ENDFONT
